# xmcd
#
# Track frame offsets:
#       150
#       12857
#       24211
#       44483
#       68377
#       89190
#       111700
#       129199
#       143758
#       191202
#       204263
#
# Disc length: 3059 seconds
#
# Revision: 0
# Processed by: cddbd v1.5.2PL0 Copyright (c) Steve Scherf et al.
# Submitted via: WhereIsIt 3.83
#
DISCID=960bf10b
DTITLE=Andy Nevison  - Wakado
DYEAR=1900
DGENRE=
TTITLE0=Don't call me Blackface
TTITLE1=Wakado
TTITLE2=Worried Man Medley
TTITLE3=When The Saints
TTITLE4=I Got A Woman
TTITLE5=Turn Your Lights Down Low
TTITLE6=Sinny's Thing
TTITLE7=Yes, I LOve You Baby
TTITLE8=The Train That I Ride
TTITLE9=Old Smokey
TTITLE10=My Lovesong
EXTD=
EXTT0=
EXTT1=
EXTT2=
EXTT3=
EXTT4=
EXTT5=
EXTT6=
EXTT7=
EXTT8=
EXTT9=
EXTT10=
PLAYORDER=
